/* XPM */
static char * C:\Users\Sturla\Documents\GitHub\shitacity\images\icons\32x32\audacity_xpm[] = {
"32 32 966 2",
"  	c #332F29",
". 	c #2D2C28",
"+ 	c #171716",
"@ 	c #100E0E",
"# 	c #0F0E0D",
"$ 	c #0E0D0D",
"% 	c #0D0C0C",
"& 	c #0C0C0C",
"* 	c #0C0B0B",
"= 	c #100F0E",
"- 	c #121010",
"; 	c #161312",
"> 	c #171514",
", 	c #1F1D1A",
"' 	c #181614",
") 	c #1C1814",
"! 	c #42463B",
"~ 	c #62685B",
"{ 	c #707569",
"] 	c #95978A",
"^ 	c #97998A",
"/ 	c #808475",
"( 	c #787E6F",
"_ 	c #797E70",
": 	c #798072",
"< 	c #7C8274",
"[ 	c #7E8476",
"} 	c #7E8777",
"| 	c #818B7A",
"1 	c #838E7C",
"2 	c #848F7F",
"3 	c #39332D",
"4 	c #4C4B45",
"5 	c #494C45",
"6 	c #464841",
"7 	c #3B3C37",
"8 	c #0F0F0D",
"9 	c #141817",
"0 	c #222929",
"a 	c #0D0D0E",
"b 	c #0B0B0B",
"c 	c #0B0B0C",
"d 	c #15120F",
"e 	c #1E1914",
"f 	c #484B42",
"g 	c #74776C",
"h 	c #ABA79C",
"i 	c #C9C3B7",
"j 	c #CDC5B8",
"k 	c #BFBAAD",
"l 	c #AFAD9F",
"m 	c #A4A396",
"n 	c #989A8C",
"o 	c #8D9081",
"p 	c #808578",
"q 	c #808878",
"r 	c #818C7B",
"s 	c #848F7E",
"t 	c #869180",
"u 	c #423430",
"v 	c #52402C",
"w 	c #322B26",
"x 	c #3E342E",
"y 	c #44413B",
"z 	c #1D1D1A",
"A 	c #1C2328",
"B 	c #1F2E3E",
"C 	c #181F27",
"D 	c #171817",
"E 	c #3C3D3A",
"F 	c #292423",
"G 	c #2A2120",
"H 	c #1B1715",
"I 	c #13100F",
"J 	c #211B17",
"K 	c #5E5D55",
"L 	c #887D76",
"M 	c #80736C",
"N 	c #B3A49C",
"O 	c #C2BAB0",
"P 	c #BEBAAF",
"Q 	c #BCB9AD",
"R 	c #BCB7AB",
"S 	c #BDB6A8",
"T 	c #BCB4A5",
"U 	c #939284",
"V 	c #81887A",
"W 	c #848C7D",
"X 	c #869181",
"Y 	c #56483E",
"Z 	c #584732",
"` 	c #3A2F2A",
" .	c #392A25",
"..	c #372723",
"+.	c #121011",
"@.	c #252A36",
"#.	c #24334A",
"$.	c #1F2A3E",
"%.	c #191E26",
"&.	c #25262A",
"*.	c #4F282D",
"=.	c #442726",
"-.	c #41372F",
";.	c #252521",
">.	c #1A1513",
",.	c #585552",
"'.	c #A59D97",
").	c #8F847E",
"!.	c #A49C94",
"~.	c #C2BBB1",
"{.	c #C0BDB3",
"].	c #B8B8AF",
"^.	c #BBB6AE",
"/.	c #BDB1A7",
"(.	c #BCAFA3",
"_.	c #B5A79A",
":.	c #938F80",
"<.	c #81897A",
"[.	c #838C7D",
"}.	c #859080",
"|.	c #889383",
"1.	c #5C4C41",
"2.	c #5A4A37",
"3.	c #3E312D",
"4.	c #392A24",
"5.	c #392724",
"6.	c #151412",
"7.	c #1F272F",
"8.	c #26374B",
"9.	c #181F2A",
"0.	c #15181E",
"a.	c #2C2E31",
"b.	c #582D31",
"c.	c #502A28",
"d.	c #35352D",
"e.	c #2A302B",
"f.	c #4A4946",
"g.	c #ACADA8",
"h.	c #BEBEB8",
"i.	c #C2BFB7",
"j.	c #C3C1BA",
"k.	c #C1BFB8",
"l.	c #B3B2AC",
"m.	c #B5B1AB",
"n.	c #BCAEA7",
"o.	c #BDABA3",
"p.	c #BEADA3",
"q.	c #B6A89C",
"r.	c #867C72",
"s.	c #84897C",
"t.	c #838D7E",
"u.	c #859180",
"v.	c #889384",
"w.	c #685F47",
"x.	c #61523E",
"y.	c #4F3F3A",
"z.	c #493831",
"A.	c #432D28",
"B.	c #1B1C1D",
"C.	c #31444A",
"D.	c #4F656B",
"E.	c #21304A",
"F.	c #29394F",
"G.	c #33363F",
"H.	c #633236",
"I.	c #5B3A39",
"J.	c #918987",
"K.	c #A5A09C",
"L.	c #A5A6A1",
"M.	c #B9BBB6",
"N.	c #BDBEB9",
"O.	c #C0C0BB",
"P.	c #B5B6AF",
"Q.	c #B3B0AA",
"R.	c #B2A5A1",
"S.	c #AA9993",
"T.	c #AE9C95",
"U.	c #BAA99F",
"V.	c #BAAA9E",
"W.	c #AA9E8F",
"X.	c #8C8F80",
"Y.	c #2F2820",
"Z.	c #2D261E",
"`.	c #312823",
" +	c #372B24",
".+	c #362622",
"++	c #2D3C51",
"@+	c #324B6A",
"#+	c #3F5268",
"$+	c #303D4A",
"%+	c #1C232D",
"&+	c #35383E",
"*+	c #72393E",
"=+	c #8F7171",
"-+	c #AA9193",
";+	c #A69999",
">+	c #B2B4AF",
",+	c #B9BAB5",
"'+	c #BABCB8",
")+	c #BBBDB8",
"!+	c #B2B2AE",
"~+	c #AEA8A5",
"{+	c #9B8987",
"]+	c #625351",
"^+	c #463C39",
"/+	c #635853",
"(+	c #70655F",
"_+	c #756D65",
":+	c #91897B",
"<+	c #8F8F80",
"[+	c #858F7F",
"}+	c #879081",
"|+	c #181513",
"1+	c #1D1815",
"2+	c #1F1917",
"3+	c #211B18",
"4+	c #241D19",
"5+	c #25201D",
"6+	c #272528",
"7+	c #27282F",
"8+	c #211D1C",
"9+	c #1D1B1C",
"0+	c #32353D",
"a+	c #733D42",
"b+	c #B19695",
"c+	c #B58E91",
"d+	c #A9A2A0",
"e+	c #AFB0AD",
"f+	c #B0B1AE",
"g+	c #B3B4B2",
"h+	c #AEAFAB",
"i+	c #AAA19E",
"j+	c #A08C8B",
"k+	c #775F60",
"l+	c #342D2C",
"m+	c #242221",
"n+	c #252422",
"o+	c #2B2926",
"p+	c #58534B",
"q+	c #797B6D",
"r+	c #848E7F",
"s+	c #879283",
"t+	c #879284",
"u+	c #351F1F",
"v+	c #4B2E31",
"w+	c #271A1A",
"x+	c #11100F",
"y+	c #100F0D",
"z+	c #11100E",
"A+	c #151210",
"B+	c #181512",
"C+	c #1D1916",
"D+	c #201A18",
"E+	c #201C19",
"F+	c #29201E",
"G+	c #928986",
"H+	c #AB9C9A",
"I+	c #A5A6A3",
"J+	c #AAAAA8",
"K+	c #A4A3A1",
"L+	c #A5A5A3",
"M+	c #A1A09E",
"N+	c #A39293",
"O+	c #9A8082",
"P+	c #6B5558",
"Q+	c #2E2526",
"R+	c #181615",
"S+	c #1A1716",
"T+	c #1D1B1A",
"U+	c #1D1C1A",
"V+	c #413C36",
"W+	c #78766A",
"X+	c #888F80",
"Y+	c #899283",
"Z+	c #899485",
"`+	c #3E302D",
" @	c #513234",
".@	c #342222",
"+@	c #171614",
"@@	c #161513",
"#@	c #131110",
"$@	c #353935",
"%@	c #24312B",
"&@	c #16201D",
"*@	c #121613",
"=@	c #4A4747",
"-@	c #6D6E6E",
";@	c #A2A5A4",
">@	c #A3A4A2",
",@	c #9F9E9C",
"'@	c #A09F9D",
")@	c #9F9B9A",
"!@	c #9E8A8C",
"~@	c #957779",
"{@	c #685053",
"]@	c #282122",
"^@	c #1C1A18",
"/@	c #1B1817",
"(@	c #181716",
"_@	c #1A1917",
":@	c #423A35",
"<@	c #887E71",
"[@	c #949384",
"}@	c #8A9383",
"|@	c #8A9586",
"1@	c #2F2925",
"2@	c #3C3437",
"3@	c #452B28",
"4@	c #2B2824",
"5@	c #1D1C19",
"6@	c #332B2A",
"7@	c #3C2C2F",
"8@	c #322828",
"9@	c #474944",
"0@	c #34443B",
"a@	c #35483F",
"b@	c #33493F",
"c@	c #31463D",
"d@	c #606967",
"e@	c #A1A5A3",
"f@	c #A2A3A1",
"g@	c #9B9B99",
"h@	c #9A9998",
"i@	c #959090",
"j@	c #977F81",
"k@	c #907173",
"l@	c #644D4F",
"m@	c #2B2424",
"n@	c #1E1B1A",
"o@	c #1B1A18",
"p@	c #211F1E",
"q@	c #564944",
"r@	c #928178",
"s@	c #969283",
"t@	c #889182",
"u@	c #2D292D",
"v@	c #45363C",
"w@	c #532D2C",
"x@	c #42382E",
"y@	c #303438",
"z@	c #383635",
"A@	c #3F3B3D",
"B@	c #423D3F",
"C@	c #443A3D",
"D@	c #352A2A",
"E@	c #48433D",
"F@	c #262422",
"G@	c #2B2D27",
"H@	c #5B605E",
"I@	c #A1A4A2",
"J@	c #989A99",
"K@	c #808081",
"L@	c #8A888A",
"M@	c #90898A",
"N@	c #8D797C",
"O@	c #8B6D6F",
"P@	c #735B5C",
"Q@	c #403434",
"R@	c #221B1B",
"S@	c #1E1A19",
"T@	c #1F1919",
"U@	c #342B29",
"V@	c #725D5A",
"W@	c #96837B",
"X@	c #908D80",
"Y@	c #383434",
"Z@	c #664644",
"`@	c #663735",
" #	c #5E3431",
".#	c #5D4448",
"+#	c #3A3433",
"@#	c #39372F",
"##	c #3E3B31",
"$#	c #423C34",
"%#	c #2A2824",
"&#	c #3D342F",
"*#	c #393130",
"=#	c #341F1F",
"-#	c #686765",
";#	c #9DA1A0",
">#	c #999B9A",
",#	c #767577",
"'#	c #5C595A",
")#	c #7D7477",
"!#	c #7B6A6D",
"~#	c #755E61",
"{#	c #675354",
"]#	c #4D3E3F",
"^#	c #2F2526",
"/#	c #211B1B",
"(#	c #352B2B",
"_#	c #66504E",
":#	c #876E6A",
"<#	c #8C8076",
"[#	c #868779",
"}#	c #848D7E",
"|#	c #869083",
"1#	c #4C463F",
"2#	c #56453F",
"3#	c #5F413A",
"4#	c #6A483D",
"5#	c #5B3933",
"6#	c #3F312D",
"7#	c #4B3C36",
"8#	c #55453E",
"9#	c #696055",
"0#	c #6A5F57",
"a#	c #25201F",
"b#	c #2C2524",
"c#	c #372526",
"d#	c #656767",
"e#	c #9AA09F",
"f#	c #9DA1A2",
"g#	c #8F9192",
"h#	c #7E7A7B",
"i#	c #75696C",
"j#	c #514547",
"k#	c #2B2627",
"l#	c #292424",
"m#	c #2A2525",
"n#	c #2A2424",
"o#	c #423735",
"p#	c #675351",
"q#	c #7E6B65",
"r#	c #7F7B6F",
"s#	c #7E8274",
"t#	c #848D80",
"u#	c #674B3F",
"v#	c #484336",
"w#	c #4C4C3B",
"x#	c #625C46",
"y#	c #4E4A3C",
"z#	c #383830",
"A#	c #2D221F",
"B#	c #412D2A",
"C#	c #523939",
"D#	c #563E3E",
"E#	c #27201F",
"F#	c #2A2524",
"G#	c #2E2627",
"H#	c #6C7070",
"I#	c #9AA1A1",
"J#	c #9DA2A3",
"K#	c #989B9B",
"L#	c #8F8F90",
"M#	c #867F82",
"N#	c #735F64",
"O#	c #5E494D",
"P#	c #4F383C",
"Q#	c #51353A",
"R#	c #5B3A3E",
"S#	c #452C30",
"T#	c #302424",
"U#	c #4E4340",
"V#	c #6A6359",
"W#	c #717064",
"X#	c #787B6D",
"Y#	c #7B8376",
"Z#	c #7F897D",
"`#	c #553B33",
" $	c #564639",
".$	c #5B4B3A",
"+$	c #755D48",
"@$	c #5A4937",
"#$	c #574636",
"$$	c #281F1C",
"%$	c #372B25",
"&$	c #463731",
"*$	c #4D433E",
"=$	c #33322F",
"-$	c #363434",
";$	c #313332",
">$	c #7E8381",
",$	c #A1A6A6",
"'$	c #949596",
")$	c #939493",
"!$	c #8E8D8E",
"~$	c #82787A",
"{$	c #746164",
"]$	c #664B4F",
"^$	c #624146",
"/$	c #603C40",
"($	c #5F4042",
"_$	c #63504C",
":$	c #675E54",
"<$	c #5F5B50",
"[$	c #656358",
"}$	c #68695D",
"|$	c #686C61",
"1$	c #696E65",
"2$	c #201918",
"3$	c #211A16",
"4$	c #221A17",
"5$	c #211A15",
"6$	c #211B16",
"7$	c #1D1714",
"8$	c #1E1917",
"9$	c #221D1A",
"0$	c #201C1A",
"a$	c #201D1C",
"b$	c #929494",
"c$	c #A8ACAB",
"d$	c #A2A5A5",
"e$	c #9B9C9C",
"f$	c #939393",
"g$	c #8E8E8E",
"h$	c #888786",
"i$	c #7C7675",
"j$	c #6B5D5E",
"k$	c #624F51",
"l$	c #645050",
"m$	c #705F59",
"n$	c #72635B",
"o$	c #534B44",
"p$	c #49423D",
"q$	c #48423F",
"r$	c #454340",
"s$	c #454442",
"t$	c #474643",
"u$	c #2E2B22",
"v$	c #4F4F43",
"w$	c #4B4D41",
"x$	c #4C4D48",
"y$	c #3A3B39",
"z$	c #131210",
"A$	c #151211",
"B$	c #151311",
"C$	c #181514",
"D$	c #1A1717",
"E$	c #232121",
"F$	c #9DA19F",
"G$	c #A7ABA9",
"H$	c #A6A7A6",
"I$	c #9F9F9E",
"J$	c #9A9899",
"K$	c #8F8D8D",
"L$	c #807E7D",
"M$	c #7A7574",
"N$	c #756D6A",
"O$	c #736A65",
"P$	c #7C7169",
"Q$	c #87776C",
"R$	c #635750",
"S$	c #463E3C",
"T$	c #423C3A",
"U$	c #413C3B",
"V$	c #423F3C",
"W$	c #41403E",
"X$	c #42413E",
"Y$	c #353126",
"Z$	c #343026",
"`$	c #312F26",
" %	c #2A2926",
".%	c #3F403D",
"+%	c #595B57",
"@%	c #3F5343",
"#%	c #4E4C45",
"$%	c #4F4E4A",
"%%	c #363229",
"&%	c #79725D",
"*%	c #54504E",
"=%	c #766E6B",
"-%	c #A4A8A6",
";%	c #A7ABA8",
">%	c #ABABA9",
",%	c #A2A2A0",
"'%	c #9F9D9C",
")%	c #939091",
"!%	c #847E7C",
"~%	c #7E7773",
"{%	c #7F7772",
"]%	c #8C817A",
"^%	c #928378",
"/%	c #968676",
"(%	c #4F4540",
"_%	c #403A37",
":%	c #403A3A",
"<%	c #403C39",
"[%	c #423C3B",
"}%	c #403E3D",
"|%	c #454240",
"1%	c #37342C",
"2%	c #333025",
"3%	c #2B2921",
"4%	c #272724",
"5%	c #3C3C39",
"6%	c #6F706B",
"7%	c #7D7E79",
"8%	c #787368",
"9%	c #898983",
"0%	c #423D32",
"a%	c #857E67",
"b%	c #6F716F",
"c%	c #989994",
"d%	c #A9ADA9",
"e%	c #A7AAA7",
"f%	c #ADAEAB",
"g%	c #AAA9A7",
"h%	c #A2A19E",
"i%	c #9B9694",
"j%	c #908985",
"k%	c #8A827D",
"l%	c #948982",
"m%	c #A2958C",
"n%	c #9C8C7F",
"o%	c #847468",
"p%	c #453B39",
"q%	c #3F3938",
"r%	c #433E3B",
"s%	c #433D3C",
"t%	c #443F3E",
"u%	c #44403F",
"v%	c #333230",
"w%	c #2B2423",
"x%	c #1E1E1B",
"y%	c #1E1D1B",
"z%	c #292926",
"A%	c #747370",
"B%	c #7B7C77",
"C%	c #757167",
"D%	c #80807A",
"E%	c #25231E",
"F%	c #3C342E",
"G%	c #898B86",
"H%	c #A6A9A2",
"I%	c #ACAFAA",
"J%	c #A8AAA8",
"K%	c #ABACAA",
"L%	c #A9A8A5",
"M%	c #A39F9E",
"N%	c #9E9695",
"O%	c #98918D",
"P%	c #9B928B",
"Q%	c #A89B93",
"R%	c #A4988D",
"S%	c #99897C",
"T%	c #6A5D53",
"U%	c #423938",
"V%	c #413939",
"W%	c #433E3D",
"X%	c #423D3B",
"Y%	c #403E3B",
"Z%	c #413F3D",
"`%	c #5F5F59",
" &	c #61615B",
".&	c #656660",
"+&	c #686863",
"@&	c #7D7B77",
"#&	c #74746F",
"$&	c #7D796E",
"%&	c #73716D",
"&&	c #26231D",
"*&	c #747570",
"=&	c #ADB1AA",
"-&	c #ADAEA8",
";&	c #ADAFAA",
">&	c #A8AAA6",
",&	c #AAAAA6",
"'&	c #A8A29E",
")&	c #A69F9C",
"!&	c #A19794",
"~&	c #9F9691",
"{&	c #A69D95",
"]&	c #A69C93",
"^&	c #9D9186",
"/&	c #A09080",
"(&	c #6A5F54",
"_&	c #403938",
":&	c #403838",
"<&	c #433D3D",
"[&	c #433D3A",
"}&	c #3D3A37",
"|&	c #959489",
"1&	c #98978C",
"2&	c #9D9D92",
"3&	c #9C9C91",
"4&	c #B2B2A7",
"5&	c #8B8782",
"6&	c #787A74",
"7&	c #7E7971",
"8&	c #6D6D69",
"9&	c #5C5D59",
"0&	c #A8ABA5",
"a&	c #B3B5AE",
"b&	c #B0B2AB",
"c&	c #AEB0AB",
"d&	c #A8A9A6",
"e&	c #AAA6A0",
"f&	c #A7A09B",
"g&	c #A19894",
"h&	c #A49B96",
"i&	c #AAA198",
"j&	c #A2988F",
"k&	c #A39687",
"l&	c #AB9C8A",
"m&	c #776B5E",
"n&	c #3D3837",
"o&	c #3C3737",
"p&	c #3D3B39",
"q&	c #413C3A",
"r&	c #3D3835",
"s&	c #3D3734",
"t&	c #3C3834",
"u&	c #939285",
"v&	c #97968B",
"w&	c #9A9A8F",
"x&	c #98978D",
"y&	c #A7A79E",
"z&	c #858581",
"A&	c #6F716C",
"B&	c #797369",
"C&	c #696966",
"D&	c #969A96",
"E&	c #AEB0A8",
"F&	c #B2B4AB",
"G&	c #B2B4AC",
"H&	c #AEB1AB",
"I&	c #A8AAA5",
"J&	c #A6A6A2",
"K&	c #AAA7A1",
"L&	c #A9A59E",
"M&	c #ABA49F",
"N&	c #AAA29A",
"O&	c #A8A097",
"P&	c #A2998E",
"Q&	c #A79A8B",
"R&	c #AFA08D",
"S&	c #887B6B",
"T&	c #3B3533",
"U&	c #383332",
"V&	c #3A3734",
"W&	c #3D3735",
"X&	c #38322F",
"Y&	c #3D3531",
"Z&	c #37312E",
"`&	c #54544E",
" *	c #51504B",
".*	c #4F4E48",
"+*	c #4B4945",
"@*	c #504F4B",
"#*	c #44423F",
"$*	c #403F3C",
"%*	c #3E3E39",
"&*	c #808480",
"**	c #A6AAA4",
"=*	c #AFB1A8",
"-*	c #AFAFA5",
";*	c #AFAFA6",
">*	c #AAACA7",
",*	c #AAAAA4",
"'*	c #A9A7A1",
")*	c #ACA9A1",
"!*	c #ADA9A1",
"~*	c #A9A49A",
"{*	c #A69E94",
"]*	c #A79D90",
"^*	c #B1A594",
"/*	c #B2A28D",
"(*	c #A59781",
"_*	c #50473F",
":*	c #322D2A",
"<*	c #383230",
"[*	c #383331",
"}*	c #3A3330",
"|*	c #352F2D",
"1*	c #2F2D29",
"2*	c #2E2D29",
"3*	c #312E2B",
"4*	c #32312F",
"5*	c #31302E",
"6*	c #61625F",
"7*	c #9C9E99",
"8*	c #A7A79F",
"9*	c #B0B1A6",
"0*	c #ACABA0",
"a*	c #AAA99F",
"b*	c #ACADA7",
"c*	c #A9ABA6",
"d*	c #A7A7A0",
"e*	c #A8A59C",
"f*	c #ABA79D",
"g*	c #ADA99F",
"h*	c #A9A59A",
"i*	c #A9A297",
"j*	c #AEA699",
"k*	c #B7AE9B",
"l*	c #B1A48F",
"m*	c #B1A28C",
"n*	c #8B7E6C",
"o*	c #312B27",
"p*	c #342E2B",
"q*	c #352F2C",
"r*	c #37302D",
"s*	c #35302C",
"t*	c #43413E",
"u*	c #42403D",
"v*	c #3F3D3A",
"w*	c #3E3D39",
"x*	c #434341",
"y*	c #929490",
"z*	c #A1A29A",
"A*	c #A6A69C",
"B*	c #A9A69B",
"C*	c #A8A498",
"D*	c #A8A9A0",
"E*	c #A9ABA5",
"F*	c #ACADA6",
"G*	c #ADABA0",
"H*	c #ABA89C",
"I*	c #ACA99E",
"J*	c #ABA79B",
"K*	c #B6B0A0",
"L*	c #B3AA96",
"M*	c #B2A592",
"N*	c #B1A38D",
"O*	c #9F907B",
"P*	c #5C5247",
"Q*	c #332C28",
"R*	c #342F2C",
"S*	c #352E2B",
"T*	c #352F2B",
"U*	c #36312C",
"V*	c #4A4542",
"W*	c #464642",
"X*	c #43423E",
"Y*	c #454440",
"Z*	c #403F3B",
"`*	c #6B6D68",
" =	c #9D9F99",
".=	c #A3A49A",
"+=	c #A4A399",
"@=	c #A5A197",
"#=	c #A19B91",
"$=	c #A49E93",
"%=	c #A7A49C",
"&=	c #A6A7A0",
"*=	c #ABADA3",
"==	c #AFAEA4",
"-=	c #AAA89C",
";=	c #ACA89D",
">=	c #AEAA9E",
",=	c #B2AEA2",
"'=	c #B0AB9A",
")=	c #AFA794",
"!=	c #B3A794",
"~=	c #AD9F8A",
"{=	c #A1937C",
"]=	c #887A69",
"^=	c #312A25",
"/=	c #34302B",
"(=	c #332D2A",
"_=	c #332E2B",
":=	c #4C4A46",
"<=	c #494844",
"[=	c #464441",
"}=	c #45433F",
"|=	c #44433F",
"1=	c #858782",
"2=	c #9FA099",
"3=	c #A5A59B",
"4=	c #A4A397",
"5=	c #A5A196",
"6=	c #A09A90",
"7=	c #9E968C",
"8=	c #A5A398",
"9=	c #A4A49D",
"0=	c #A4A49A",
"a=	c #A7A599",
"b=	c #A5A195",
"c=	c #A7A397",
"d=	c #AEAA9C",
"e=	c #ADA897",
"f=	c #B0A997",
"g=	c #B0A693",
"h=	c #AC9E89",
"i=	c #A4947E",
"j=	c #A1927D",
"k=	c #3B342D",
"l=	c #312C29",
"m=	c #36312E",
"n=	c #4C4B48",
"o=	c #4D4A47",
"p=	c #4A4844",
"q=	c #474642",
"r=	c #43433E",
"s=	c #929690",
"t=	c #9F9F97",
"u=	c #A0A096",
"v=	c #A1A195",
"w=	c #A19E93",
"x=	c #9E988E",
"y=	c #9E988D",
"z=	c #A29F95",
"A=	c #A4A39B",
"B=	c #A3A198",
"C=	c #9D9A8E",
"D=	c #979387",
"E=	c #9F9B8F",
"F=	c #ADA99D",
"G=	c #AEA99B",
"H=	c #AFA898",
"I=	c #B1A895",
"J=	c #B1A38F",
"K=	c #A59680",
"L=	c #AA9B84",
"M=	c #5B5246",
"N=	c #312D2A",
"O=	c #35302D",
"P=	c #38312E",
"Q=	c #4D4C48",
"R=	c #4B4B45",
"S=	c #484744",
"T=	c #595A56",
"U=	c #999D96",
"V=	c #A0A098",
"W=	c #9F9F96",
"X=	c #9C9A8F",
"Y=	c #9F9C91",
"Z=	c #9D988D",
"`=	c #9F9C93",
" -	c #9F9E95",
".-	c #A4A297",
"+-	c #A19D91",
"@-	c #959084",
"#-	c #9F9A8C",
"$-	c #AAA598",
"%-	c #ADA89B",
"&-	c #B3AC9B",
"*-	c #B4AC99",
"=-	c #B2A693",
"--	c #A99C88",
";-	c #A59783",
">-	c #706658",
",-	c #322E2B",
"'-	c #35302E",
")-	c #373231",
"!-	c #4F4E4C",
"~-	c #4C4B47",
"{-	c #42413D",
"]-	c #6A6C67",
"^-	c #9A9D97",
"/-	c #9E9F96",
"(-	c #9D9E93",
"_-	c #9A988D",
":-	c #959287",
"<-	c #979287",
"[-	c #969287",
"}-	c #9B998F",
"|-	c #9B988E",
"1-	c #9D9B8F",
"2-	c #948E80",
"3-	c #989384",
"4-	c #9D9686",
"5-	c #A7A092",
"6-	c #ABA699",
"7-	c #A9A498",
"8-	c #B1AC9F",
"9-	c #B5AF9D",
"0-	c #B1A995",
"a-	c #A79A88",
"b-	c #9B8F7C",
"c-	c #766B5E",
"d-	c #302B28",
"e-	c #34302C",
"f-	c #352F2E",
"g-	c #36312F",
"  . + @ # $ % & * & = - ; > , ' ) ! ~ { ] ^ / ( _ : < [ } | 1 2 ",
"3 4 5 6 7 8 9 0 a b c b b & 8 d e f g h i j k l m n o p q r s t ",
"u v w x y z A B C D E F G H & I J K L M N O P Q R S T U V W 2 X ",
"Y Z `  ...+.@.#.$.%.&.*.=.-.;.>.,.'.).!.~.{.].^./.(._.:.<.[.}.|.",
"1.2.3.4.5.6.7.8.9.0.a.b.c.d.e.f.g.h.i.j.k.l.m.n.o.p.q.r.s.t.u.v.",
"w.x.y.z.A.B.C.D.E.F.G.H.I.J.K.L.M.N.O.O.P.Q.R.S.T.U.V.W.X.t.X |.",
"Y.Z.`. +.+++@+#+$+%+&+*+=+-+;+>+,+'+)+!+~+{+]+^+/+(+_+:+<+[+}+|.",
"|+1+2+3+4+5+6+7+8+9+0+a+b+c+d+e+f+g+h+i+j+k+l+m+m+n+o+p+q+r+s+t+",
"u+v+w+x+y+z+A+B+C+D+E+F+G+H+I+J+K+L+M+N+O+P+Q+R+S+T+U+V+W+X+Y+Z+",
"`+ @.@+@@@@@6.#@$@%@&@*@=@-@;@>@,@'@)@!@~@{@]@^@/@(@_@:@<@[@}@|@",
"1@2@3@4@5@6@7@8@9@0@a@b@c@d@e@f@g@h@i@j@k@l@m@n@o@n@p@q@r@s@t@v.",
"u@v@w@x@y@z@A@B@C@D@E@F@G@H@I@J@K@L@M@N@O@P@Q@R@S@T@U@V@W@X@t v.",
"Y@Z@`@ #.#+#@###$#%#&#*#=#-#;#>#,#'#)#!#~#{#]#^#/#(#_#:#<#[#}#|#",
"1#2#3#4#5#6#7#8#9#0#a#b#c#d#e#f#g#h#i#j#k#l#m#n#F o#p#q#r#s#<.t#",
"u#v#w#x#y#z#A#B#C#D#E#F#G#H#I#J#K#L#M#N#O#P#Q#R#S#T#U#V#W#X#Y#Z#",
"`# $.$+$@$#$$$%$&$*$=$-$;$>$,$f#'$)$!$~${$]$^$/$($_$:$<$[$}$|$1$",
"2$D+3$4$5$6$7$1+8$9$8$0$a$b$c$d$e$f$g$h$i$j$k$l$m$n$o$p$q$r$s$t$",
"u$v$v$w$x$y$z$#@A$B$C$D$E$F$G$H$I$J$K$L$M$N$O$P$Q$R$S$T$U$V$W$X$",
"Y$Z$`$ %.%+%@%#%$%%%&%*%=%-%;%>%,%'%)%!%~%{%]%^%/%(%_%:%<%[%}%|%",
"1%2%3%4%5%6%7%8%9%0%a%b%c%d%e%f%g%h%i%j%k%l%m%n%o%p%q%:%r%s%t%u%",
"v%w%x%y%z%A%B%C%D%E%F%G%H%I%J%K%L%M%N%O%P%Q%R%S%T%U%V%[%W%X%Y%Z%",
"`% &.&+&7%@&#&$&%&&&*&=&-&;&>&,&'&)&!&~&{&]&^&/&(&_&:&<&X%[&}&X%",
"|&1&2&3&4&5&6&7&8&9&0&a&b&c&d&,&e&f&g&h&i&j&k&l&m&n&o&p&q&r&s&t&",
"u&v&w&x&y&z&A&B&C&D&E&F&G&H&I&J&K&L&M&N&O&P&Q&R&S&T&U&V&W&X&Y&Z&",
"`& *.*+*@*#*$*%*&***=*-*;*c&>*,*'*)*!*~*{*]*^*/*(*_*:*<*[*Z&}*|*",
"1*. 2*3*1*4*5*6*7*8*9*0*a*b*c*d*e*f*g*h*i*j*k*l*m*n*o*p*|*q*r*s*",
"t*u*v*Y%w*$*x*y*z*A*B*C*h*D*E*F*G*H*I*h J*K*L*M*N*O*P*Q*R*S*T*U*",
"V*W*X*Y*Z*w*`* =.=+=@=#=$=%=&=*===-=;=>=,='=)=!=~={=]=^=/=(=_=X&",
":=<=[=}=|=u*1=2=3=4=5=6=7=8=9=0=a=b=c=H*d=e=f=g=h=i=j=k=p*l=R*m=",
"n=o=p=q=r=W*s=t=u=v=w=x=y=z=A=B=C=D=E=C*F=G=H=I=J=K=L=M=s*N=O=P=",
"Q=:=R=S=X*T=U=V=W=X=Y=Z=x=`= -.-+-@-#-$-F=%-&-*-=---;->-p*,-'-)-",
"!-Q=~-<={-]-^-/-(-_-:-<-[-}-|-1-2-3-4-5-6-7-8-9-0-a-b-c-d-e-f-g-"};
