/* XPM */
static char * C:\Users\Sturla\Documents\GitHub\shitacity\images\icons\16x16\audacity16_xpm[] = {
"16 16 253 2",
"  	c #3A3732",
". 	c #353631",
"+ 	c #20211E",
"@ 	c #151919",
"# 	c #0C0C0C",
"$ 	c #0E0D0D",
"% 	c #12100F",
"& 	c #181613",
"* 	c #35362E",
"= 	c #808277",
"- 	c #B3B0A3",
"; 	c #9D9D8F",
"> 	c #8D9082",
", 	c #828779",
"' 	c #808A79",
") 	c #848F7E",
"! 	c #514134",
"~ 	c #392E29",
"{ 	c #2E2825",
"] 	c #222C3B",
"^ 	c #1A202B",
"/ 	c #392E2E",
"( 	c #352824",
"_ 	c #191815",
": 	c #6C6762",
"< 	c #8F857E",
"[ 	c #BEB6AC",
"} 	c #BBB8AE",
"| 	c #BCB3A7",
"1 	c #A7A092",
"2 	c #828A7B",
"3 	c #869181",
"4 	c #605340",
"5 	c #443530",
"6 	c #2E211F",
"7 	c #35464F",
"8 	c #1E2A3C",
"9 	c #4A3136",
"0 	c #635452",
"a 	c #7F7E7A",
"b 	c #B8B9B4",
"c 	c #C2C0BA",
"d 	c #B7B6AF",
"e 	c #B4A8A2",
"f 	c #B9A89F",
"g 	c #AA9C90",
"h 	c #868C7E",
"i 	c #879282",
"j 	c #241E19",
"k 	c #2B221E",
"l 	c #2B2A31",
"m 	c #313E52",
"n 	c #232830",
"o 	c #59383F",
"p 	c #A98B8C",
"q 	c #ACA8A5",
"r 	c #B6B7B3",
"s 	c #B1B0AC",
"t 	c #9A8A89",
"u 	c #443A38",
"v 	c #504844",
"w 	c #6A645B",
"x 	c #858A7B",
"y 	c #879283",
"z 	c #452C2D",
"A 	c #241919",
"B 	c #131210",
"C 	c #151311",
"D 	c #272A26",
"E 	c #1C1C19",
"F 	c #847C7A",
"G 	c #A5A7A5",
"H 	c #A2A29F",
"I 	c #A09696",
"J 	c #83696C",
"K 	c #231E1E",
"L 	c #1B1817",
"M 	c #322D29",
"N 	c #888678",
"O 	c #899384",
"P 	c #383032",
"Q 	c #432F2A",
"R 	c #2F2D2E",
"S 	c #3C3436",
"T 	c #3D3D3A",
"U 	c #374039",
"V 	c #4B534F",
"W 	c #A0A2A0",
"X 	c #90908F",
"Y 	c #938486",
"Z 	c #7E6365",
"` 	c #2D2525",
" .	c #1D1A19",
"..	c #4F413E",
"+.	c #94897E",
"@.	c #889282",
"#.	c #51413D",
"$.	c #643D37",
"%.	c #4E3938",
"&.	c #473D35",
"*.	c #554D45",
"=.	c #342C2A",
"-.	c #504C4C",
";.	c #9BA09F",
">.	c #797879",
",.	c #716568",
"'.	c #544546",
").	c #362C2D",
"!.	c #322929",
"~.	c #76605D",
"{.	c #848175",
"].	c #848D7F",
"^.	c #574438",
"/.	c #605441",
"(.	c #4E4436",
"_.	c #4F3C3A",
":.	c #2D2A29",
"<.	c #5A5C5B",
"[.	c #9EA2A3",
"}.	c #949595",
"|.	c #837A7C",
"1.	c #634D51",
"2.	c #5C3B40",
"3.	c #513B3B",
"4.	c #605950",
"5.	c #6E6E62",
"6.	c #747B6F",
"7.	c #36332C",
"8.	c #3E3D34",
"9.	c #363531",
"0.	c #181412",
"a.	c #1A1614",
"b.	c #1B1816",
"c.	c #717372",
"d.	c #A6A9A8",
"e.	c #9A9A99",
"f.	c #898888",
"g.	c #766E6D",
"h.	c #6E605D",
"i.	c #74655D",
"j.	c #49423E",
"k.	c #44403E",
"l.	c #444340",
"m.	c #38342A",
"n.	c #2E2C26",
"o.	c #545551",
"p.	c #65675E",
"q.	c #5C5A54",
"r.	c #726E61",
"s.	c #999A96",
"t.	c #A9ACA9",
"u.	c #A3A2A0",
"v.	c #918B8A",
"w.	c #877F79",
"x.	c #978A80",
"y.	c #72655A",
"z.	c #403A39",
"A.	c #423D3B",
"B.	c #43403F",
"C.	c #4E4E49",
"D.	c #4C4D48",
"E.	c #6C6C68",
"F.	c #78776F",
"G.	c #5D5C57",
"H.	c #81837E",
"I.	c #ABAEA8",
"J.	c #A9ABA7",
"K.	c #A6A29F",
"L.	c #9D9592",
"M.	c #A49992",
"N.	c #9F9184",
"O.	c #594E47",
"P.	c #413B3B",
"Q.	c #403D3B",
"R.	c #969589",
"S.	c #9B9B90",
"T.	c #9C9B93",
"U.	c #77766E",
"V.	c #757672",
"W.	c #AFB1AA",
"X.	c #B0B2AB",
"Y.	c #A8A9A5",
"Z.	c #A9A59F",
"`.	c #A79E99",
" +	c #A59D93",
".+	c #A99B8A",
"++	c #645A51",
"@+	c #3B3735",
"#+	c #3D3735",
"$+	c #3B3532",
"%+	c #44433E",
"&+	c #3F3E39",
"*+	c #3E3C39",
"=+	c #464643",
"-+	c #9B9E98",
";+	c #AFAFA5",
">+	c #ADADA6",
",+	c #A9AAA4",
"'+	c #AAA79F",
")+	c #ABA79D",
"!+	c #A9A195",
"~+	c #B3A693",
"{+	c #928672",
"]+	c #332E2B",
"^+	c #36312E",
"/+	c #37312E",
"(+	c #454340",
"_+	c #42413D",
":+	c #3F3E3A",
"<+	c #7E7F7B",
"[+	c #A4A49A",
"}+	c #A6A197",
"|+	c #A7A49B",
"1+	c #AAABA4",
"2+	c #ACAA9F",
"3+	c #ACA89D",
"4+	c #B1AC9E",
"5+	c #B2A794",
"6+	c #A89984",
"7+	c #5B5146",
"8+	c #342E2B",
"9+	c #36302C",
"0+	c #4B4A46",
"a+	c #474642",
"b+	c #43423F",
"c+	c #969891",
"d+	c #A3A297",
"e+	c #A19D92",
"f+	c #A09C92",
"g+	c #A4A39A",
"h+	c #A09D91",
"i+	c #A6A396",
"j+	c #ADA99B",
"k+	c #B0A896",
"l+	c #A99B86",
"m+	c #837765",
"n+	c #36302D",
"o+	c #4D4C49",
"p+	c #4A4945",
"q+	c #545550",
"r+	c #9C9E97",
"s+	c #9D9C91",
"t+	c #9A968B",
"u+	c #9B988E",
"v+	c #9F9D92",
"w+	c #999486",
"x+	c #A39E8F",
"y+	c #ABA79A",
"z+	c #B3AD9C",
"A+	c #ADA18E",
"B+	c #8C806F",
"C+	c #322E2A",
"D+	c #36312F",
"  . + @ # $ % & * = - ; > , ' ) ",
"! ~ { ] ^ / ( _ : < [ } | 1 2 3 ",
"4 5 6 7 8 9 0 a b c d e f g h i ",
"j k l m n o p q r s t u v w x y ",
"z A B C D E F G H I J K L M N O ",
"P Q R S T U V W X Y Z `  ...+.@.",
"#.$.%.&.*.=.-.;.>.,.'.).!.~.{.].",
"^./.(.( _.:.<.[.}.|.1.2.3.4.5.6.",
"7.8.9.0.a.b.c.d.e.f.g.h.i.j.k.l.",
"m.n.o.p.q.r.s.t.u.v.w.x.y.z.A.B.",
"C.D.E.F.G.H.I.J.K.L.M.N.O.P.A.Q.",
"R.S.T.U.V.W.X.Y.Z.`. +.+++@+#+$+",
"%+&+*+=+-+;+>+,+'+)+!+~+{+]+^+/+",
"(+_+:+<+[+}+|+1+2+3+4+5+6+7+8+9+",
"0+a+b+c+d+e+f+g+h+i+j+k+l+m+]+n+",
"o+p+q+r+s+t+u+v+w+x+y+z+A+B+C+D+"};
